<svg width="38" height="38" viewBox="0 0 38 38" fill="none" xmlns="http://www.w3.org/2000/svg">
<path d="M25.3337 34.8334V28.7059C25.3931 27.9509 25.2911 27.192 25.0344 26.4794C24.7778 25.7669 24.3725 25.1172 23.8453 24.5734C28.817 24.0193 34.042 22.1351 34.042 13.4901C34.0416 11.2795 33.1913 9.15367 31.667 7.5526C32.3888 5.61857 32.3377 3.48082 31.5245 1.58344C31.5245 1.58344 29.6562 1.02927 25.3337 3.92677C21.7047 2.94324 17.8793 2.94324 14.2503 3.92677C9.92783 1.02927 8.05949 1.58344 8.05949 1.58344C7.24625 3.48082 7.19522 5.61857 7.91699 7.5526C6.38136 9.16555 5.53015 11.3106 5.54199 13.5376C5.54199 22.1193 10.767 24.0034 15.7387 24.6209C15.2177 25.1592 14.816 25.8012 14.5596 26.505C14.3031 27.2088 14.1978 27.9587 14.2503 28.7059V34.8334M14.2503 30.0834C6.33366 32.4584 6.33366 26.1251 3.16699 25.3334L14.2503 30.0834Z" stroke="white" stroke-width="1.5" stroke-linecap="round" stroke-linejoin="round"/>
</svg>
